<?xml version="1.0" standalone="no"?>
<!DOCTYPE svg PUBLIC "-//W3C//DTD SVG 20010904//EN"
 "http://www.w3.org/TR/2001/REC-SVG-20010904/DTD/svg10.dtd">
<svg version="1.0" xmlns="http://www.w3.org/2000/svg"
 width="96.000000pt" height="96.000000pt" viewBox="0 0 96.000000 96.000000"
 preserveAspectRatio="xMidYMid meet">
<metadata>
Created by potrace 1.11, written by Peter Selinger 2001-2013
</metadata>
<g transform="translate(0.000000,96.000000) scale(0.100000,-0.100000)"
fill="#000000" stroke="none">
<path d="M455 848 c-10 -29 -33 -72 -51 -95 -22 -26 -30 -43 -22 -45 7 -3 -2
-13 -20 -23 -41 -25 -41 -38 1 -31 l32 5 -28 -25 c-15 -13 -34 -24 -41 -24 -8
0 -19 -7 -26 -15 -10 -13 -9 -15 9 -15 35 0 26 -34 -14 -53 -19 -9 -35 -21
-35 -27 0 -8 37 -15 63 -11 4 0 7 -4 7 -10 0 -6 -27 -22 -60 -36 -57 -25 -75
-42 -47 -44 6 -1 17 -2 22 -4 6 -1 21 -3 35 -4 21 -1 16 -6 -30 -30 -34 -18
-54 -35 -54 -45 1 -8 -7 -18 -18 -22 -13 -4 -18 -12 -15 -23 2 -10 -4 -23 -14
-30 -20 -12 -25 -36 -10 -45 5 -4 22 -1 38 5 46 18 103 20 103 5 0 -25 39 -25
75 0 l35 23 14 -27 c7 -15 12 -44 10 -64 -4 -44 11 -56 69 -53 46 2 56 14 52
66 -1 22 -1 39 1 39 3 0 18 -15 34 -32 28 -30 31 -32 43 -16 13 16 15 16 36 1
18 -12 28 -13 47 -4 13 6 24 14 23 18 -4 24 16 53 35 53 42 0 63 43 27 55 -11
3 -18 12 -15 19 3 8 -4 21 -16 29 -22 15 -22 15 -1 22 25 8 18 29 -21 67 -15
15 -28 31 -27 35 3 21 -2 33 -16 33 -8 0 -15 9 -15 20 0 11 7 20 15 20 29 0
15 17 -27 34 -34 13 -40 19 -28 26 13 9 11 14 -12 33 -34 28 -35 37 -5 37 20
1 19 3 -15 35 -20 18 -34 36 -31 39 3 3 -6 19 -20 35 -14 17 -33 54 -42 83
-10 29 -21 57 -25 61 -4 5 -16 -15 -25 -45z"/>
</g>
</svg>
